<?xml version="1.0" encoding="UTF-8"?>
<svg xmlns="http://www.w3.org/2000/svg" width="40" height="40" viewBox="0 0 40 40" fill="none">
  <!-- left code panel -->
  <rect x="3" y="7" width="14" height="26" rx="4" fill="#2B2B2B" stroke="#E6E6E6" stroke-width="1.6"/>
  <path d="M 5.5 13 H 14.5 M 5.5 18 H 14.5 M 5.5 23 H 14.5 M 5.5 28 H 14.5"
        stroke="#CFCFCF" stroke-width="1.6" stroke-linecap="round"/>
  <text x="10.0" y="38.5" text-anchor="middle" font-size="6" font-family="Inter, Arial, sans-serif" fill="#CFCFCF">javax</text>

  <!-- right code panel -->
  <rect x="23" y="7" width="14" height="26" rx="4" fill="#303030" stroke="#E6E6E6" stroke-width="1.6"/>
  <path d="M 25.5 13 H 34.5 M 25.5 18 H 34.5 M 25.5 23 H 34.5 M 25.5 28 H 34.5"
        stroke="#CFCFCF" stroke-width="1.6" stroke-linecap="round"/>
  <text x="30.0" y="38.5" text-anchor="middle" font-size="6" font-family="Inter, Arial, sans-serif" fill="#CFCFCF">jakarta</text>

  <!-- arrow -->
  <path d="M 20 20.0 H 20" stroke="#90CAF9" stroke-width="1.6" stroke-linecap="round"/>
  <path d="M 20 20.0 L 15.0 15.6 M 20 20.0 L 15.0 24.4"
        stroke="#90CAF9" stroke-width="1.6" stroke-linecap="round" stroke-linejoin="round"/>

  <!-- left badge: X -->
  <circle cx="12.8" cy="9.0" r="3.2" fill="#FF7043"/>
  <path d="M 11.0 7.2 L 14.600000000000001 10.8 M 14.600000000000001 7.2 L 11.0 10.8"
        stroke="#FFFFFF" stroke-width="1.6" stroke-linecap="round"/>

  <!-- right badge: check -->
  <circle cx="32.8" cy="9.0" r="3.2" fill="#81C784"/>
  <path d="M 30.799999999999997 9.2 L 32.4 10.8 L 35.0 7.2"
        stroke="#FFFFFF" stroke-width="1.6" stroke-linecap="round" stroke-linejoin="round"/>
</svg>