<?xml version="1.0" encoding="UTF-8"?>
<svg xmlns="http://www.w3.org/2000/svg" width="16" height="16" viewBox="0 0 16 16" fill="none">
  <!-- left code panel -->
  <rect x="1" y="2" width="6" height="12" rx="2" fill="#F2F2F2" stroke="#2B2B2B" stroke-width="1"/>
  <path d="M 2.2 5 H 5.8 M 2.2 8 H 5.8 M 2.2 11 H 5.8"
        stroke="#5A5A5A" stroke-width="1" stroke-linecap="round"/>

  <!-- right code panel -->
  <rect x="9" y="2" width="6" height="12" rx="2" fill="#F7F7F7" stroke="#2B2B2B" stroke-width="1"/>
  <path d="M 10.2 5 H 13.8 M 10.2 8 H 13.8 M 10.2 11 H 13.8"
        stroke="#5A5A5A" stroke-width="1" stroke-linecap="round"/>

  <!-- arrow -->
  <path d="M 8 8 H 8" stroke="#4FC3F7" stroke-width="1" stroke-linecap="round"/>
  <path d="M 8 8 L 5.8 6.0 M 8 8 L 5.8 10.0"
        stroke="#4FC3F7" stroke-width="1" stroke-linecap="round" stroke-linejoin="round"/>

  <!-- left badge: X -->
  <circle cx="3.8" cy="3.4000000000000004" r="1.6" fill="#FF8A65"/>
  <path d="M 2.9 2.5000000000000004 L 4.7 4.300000000000001 M 4.7 2.5000000000000004 L 2.9 4.300000000000001"
        stroke="#FFFFFF" stroke-width="1" stroke-linecap="round"/>

  <!-- right badge: check -->
  <circle cx="11.8" cy="3.4000000000000004" r="1.6" fill="#66BB6A"/>
  <path d="M 10.8 3.5000000000000004 L 11.600000000000001 4.300000000000001 L 13.0 2.6000000000000005"
        stroke="#FFFFFF" stroke-width="1" stroke-linecap="round" stroke-linejoin="round"/>
</svg>